<mxfile host="app.diagrams.net" agent="Mozilla/5.0 (Windows NT 10.0; Win64; x64) AppleWebKit/537.36 (KHTML, like Gecko) Chrome/136.0.0.0 Safari/537.36" version="27.1.1">
  <diagram name="Trang-1" id="gt23MECRmC9eGhrMP80W">
    <mxGraphModel dx="2911" dy="1124" grid="1" gridSize="10" guides="1" tooltips="1" connect="1" arrows="1" fold="1" page="1" pageScale="1" pageWidth="827" pageHeight="1169" math="0" shadow="0">
      <root>
        <mxCell id="0" />
        <mxCell id="1" parent="0" />
        <mxCell id="2EM5L-1oZQc2lYcwiExf-1" value="" style="ellipse;html=1;shape=startState;fillColor=#000000;strokeColor=#ff0000;" vertex="1" parent="1">
          <mxGeometry x="-315" y="60" width="30" height="30" as="geometry" />
        </mxCell>
        <mxCell id="2EM5L-1oZQc2lYcwiExf-2" value="" style="edgeStyle=orthogonalEdgeStyle;html=1;verticalAlign=bottom;endArrow=open;endSize=8;strokeColor=#ff0000;rounded=0;entryX=0.5;entryY=0;entryDx=0;entryDy=0;" edge="1" source="2EM5L-1oZQc2lYcwiExf-1" parent="1" target="2EM5L-1oZQc2lYcwiExf-7">
          <mxGeometry relative="1" as="geometry">
            <mxPoint x="-15" y="190" as="targetPoint" />
          </mxGeometry>
        </mxCell>
        <mxCell id="2EM5L-1oZQc2lYcwiExf-5" value="Customer Reports" style="edgeLabel;html=1;align=center;verticalAlign=middle;resizable=0;points=[];" vertex="1" connectable="0" parent="2EM5L-1oZQc2lYcwiExf-2">
          <mxGeometry x="-0.1868" y="-1" relative="1" as="geometry">
            <mxPoint as="offset" />
          </mxGeometry>
        </mxCell>
        <mxCell id="2EM5L-1oZQc2lYcwiExf-7" value="&lt;p style=&quot;margin:0px;margin-top:4px;text-align:center;&quot;&gt;&lt;b&gt;New Report&lt;/b&gt;&lt;/p&gt;&lt;hr size=&quot;1&quot; style=&quot;border-style:solid;&quot;&gt;&lt;div style=&quot;height:2px;&quot;&gt;&lt;/div&gt;" style="verticalAlign=top;align=left;overflow=fill;html=1;whiteSpace=wrap;rounded=1;fillColor=#fff2cc;strokeColor=light-dark(#000000, #6d5100);" vertex="1" parent="1">
          <mxGeometry x="-370" y="160" width="140" height="40" as="geometry" />
        </mxCell>
        <mxCell id="2EM5L-1oZQc2lYcwiExf-34" value="" style="endArrow=open;endFill=1;endSize=12;html=1;rounded=0;exitX=0.5;exitY=1;exitDx=0;exitDy=0;entryX=0.5;entryY=0;entryDx=0;entryDy=0;" edge="1" parent="1" source="2EM5L-1oZQc2lYcwiExf-7" target="2EM5L-1oZQc2lYcwiExf-36">
          <mxGeometry width="160" relative="1" as="geometry">
            <mxPoint x="-20" y="280" as="sourcePoint" />
            <mxPoint x="-15" y="300" as="targetPoint" />
            <Array as="points" />
          </mxGeometry>
        </mxCell>
        <mxCell id="2EM5L-1oZQc2lYcwiExf-35" value="Manager Receives" style="edgeLabel;html=1;align=center;verticalAlign=middle;resizable=0;points=[];" vertex="1" connectable="0" parent="2EM5L-1oZQc2lYcwiExf-34">
          <mxGeometry x="-0.135" y="-1" relative="1" as="geometry">
            <mxPoint x="1" y="2" as="offset" />
          </mxGeometry>
        </mxCell>
        <mxCell id="2EM5L-1oZQc2lYcwiExf-36" value="&lt;p style=&quot;margin:0px;margin-top:4px;text-align:center;&quot;&gt;&lt;b&gt;Manager Review&lt;/b&gt;&lt;/p&gt;&lt;hr size=&quot;1&quot; style=&quot;border-style:solid;&quot;&gt;&lt;div style=&quot;height:2px;&quot;&gt;&lt;/div&gt;" style="verticalAlign=top;align=left;overflow=fill;html=1;whiteSpace=wrap;rounded=1;fillColor=#fff2cc;strokeColor=light-dark(#000000, #6d5100);" vertex="1" parent="1">
          <mxGeometry x="-370" y="310" width="140" height="40" as="geometry" />
        </mxCell>
        <mxCell id="2EM5L-1oZQc2lYcwiExf-37" value="&lt;p style=&quot;margin:0px;margin-top:4px;text-align:center;&quot;&gt;&lt;b&gt;Rejected&lt;/b&gt;&lt;/p&gt;&lt;hr size=&quot;1&quot; style=&quot;border-style:solid;&quot;&gt;&lt;div style=&quot;height:2px;&quot;&gt;&lt;/div&gt;" style="verticalAlign=top;align=left;overflow=fill;html=1;whiteSpace=wrap;rounded=1;fillColor=#fff2cc;strokeColor=light-dark(#000000, #6d5100);" vertex="1" parent="1">
          <mxGeometry x="-370" y="1240" width="140" height="40" as="geometry" />
        </mxCell>
        <mxCell id="2EM5L-1oZQc2lYcwiExf-38" value="&lt;p style=&quot;margin:0px;margin-top:4px;text-align:center;&quot;&gt;&lt;b&gt;Pending Classification&lt;/b&gt;&lt;/p&gt;&lt;hr size=&quot;1&quot; style=&quot;border-style:solid;&quot;&gt;&lt;div style=&quot;height:2px;&quot;&gt;&lt;/div&gt;" style="verticalAlign=top;align=left;overflow=fill;html=1;whiteSpace=wrap;rounded=1;fillColor=#fff2cc;strokeColor=light-dark(#000000, #6d5100);" vertex="1" parent="1">
          <mxGeometry x="365" y="310" width="140" height="40" as="geometry" />
        </mxCell>
        <mxCell id="2EM5L-1oZQc2lYcwiExf-39" value="&lt;p style=&quot;margin:0px;margin-top:4px;text-align:center;&quot;&gt;&lt;b&gt;Manager Self-handles&lt;/b&gt;&lt;/p&gt;&lt;hr size=&quot;1&quot; style=&quot;border-style:solid;&quot;&gt;&lt;div style=&quot;height:2px;&quot;&gt;&lt;/div&gt;" style="verticalAlign=top;align=left;overflow=fill;html=1;whiteSpace=wrap;rounded=1;fillColor=#fff2cc;strokeColor=light-dark(#000000, #6d5100);arcSize=7;" vertex="1" parent="1">
          <mxGeometry x="-85" y="470" width="450" height="340" as="geometry" />
        </mxCell>
        <mxCell id="2EM5L-1oZQc2lYcwiExf-40" value="&lt;p style=&quot;margin:0px;margin-top:4px;text-align:center;&quot;&gt;&lt;b&gt;Processing by Manager&lt;/b&gt;&lt;/p&gt;&lt;hr size=&quot;1&quot; style=&quot;border-style:solid;&quot;&gt;&lt;div style=&quot;height:2px;&quot;&gt;&lt;/div&gt;" style="verticalAlign=top;align=left;overflow=fill;html=1;whiteSpace=wrap;rounded=1;fillColor=#fff2cc;strokeColor=light-dark(#000000, #6d5100);" vertex="1" parent="1">
          <mxGeometry x="70" y="520" width="140" height="40" as="geometry" />
        </mxCell>
        <mxCell id="2EM5L-1oZQc2lYcwiExf-41" value="&lt;p style=&quot;margin:0px;margin-top:4px;text-align:center;&quot;&gt;&lt;b&gt;Processing on Hold&lt;/b&gt;&lt;/p&gt;&lt;hr size=&quot;1&quot; style=&quot;border-style:solid;&quot;&gt;&lt;div style=&quot;height:2px;&quot;&gt;&lt;/div&gt;" style="verticalAlign=top;align=left;overflow=fill;html=1;whiteSpace=wrap;rounded=1;fillColor=#fff2cc;strokeColor=light-dark(#000000, #6d5100);" vertex="1" parent="1">
          <mxGeometry x="-50" y="680" width="140" height="40" as="geometry" />
        </mxCell>
        <mxCell id="2EM5L-1oZQc2lYcwiExf-42" value="&lt;p style=&quot;margin:0px;margin-top:4px;text-align:center;&quot;&gt;&lt;b&gt;Processing Comleted&lt;/b&gt;&lt;/p&gt;&lt;hr size=&quot;1&quot; style=&quot;border-style:solid;&quot;&gt;&lt;div style=&quot;height:2px;&quot;&gt;&lt;/div&gt;" style="verticalAlign=top;align=left;overflow=fill;html=1;whiteSpace=wrap;rounded=1;fillColor=#fff2cc;strokeColor=light-dark(#000000, #6d5100);" vertex="1" parent="1">
          <mxGeometry x="180" y="680" width="140" height="40" as="geometry" />
        </mxCell>
        <mxCell id="2EM5L-1oZQc2lYcwiExf-43" value="" style="ellipse;html=1;shape=startState;fillColor=#000000;strokeColor=#ff0000;" vertex="1" parent="1">
          <mxGeometry x="-40" y="525" width="30" height="30" as="geometry" />
        </mxCell>
        <mxCell id="2EM5L-1oZQc2lYcwiExf-44" value="" style="edgeStyle=orthogonalEdgeStyle;html=1;verticalAlign=bottom;endArrow=open;endSize=8;strokeColor=#ff0000;rounded=0;entryX=0;entryY=0.5;entryDx=0;entryDy=0;exitX=1;exitY=0.5;exitDx=0;exitDy=0;" edge="1" parent="1" source="2EM5L-1oZQc2lYcwiExf-43" target="2EM5L-1oZQc2lYcwiExf-40">
          <mxGeometry relative="1" as="geometry">
            <mxPoint x="-5" y="190" as="targetPoint" />
            <mxPoint x="-5" y="110" as="sourcePoint" />
          </mxGeometry>
        </mxCell>
        <mxCell id="2EM5L-1oZQc2lYcwiExf-47" value="" style="endArrow=open;endFill=1;endSize=12;html=1;rounded=0;exitX=0.25;exitY=1;exitDx=0;exitDy=0;entryX=0;entryY=0;entryDx=0;entryDy=0;" edge="1" parent="1" source="2EM5L-1oZQc2lYcwiExf-40" target="2EM5L-1oZQc2lYcwiExf-41">
          <mxGeometry width="160" relative="1" as="geometry">
            <mxPoint x="180" y="555" as="sourcePoint" />
            <mxPoint x="-35" y="645" as="targetPoint" />
            <Array as="points">
              <mxPoint y="590" />
            </Array>
          </mxGeometry>
        </mxCell>
        <mxCell id="2EM5L-1oZQc2lYcwiExf-48" value="Needs more&lt;div&gt;information&lt;/div&gt;" style="edgeLabel;html=1;align=center;verticalAlign=middle;resizable=0;points=[];" vertex="1" connectable="0" parent="2EM5L-1oZQc2lYcwiExf-47">
          <mxGeometry x="-0.135" y="-1" relative="1" as="geometry">
            <mxPoint x="-41" y="47" as="offset" />
          </mxGeometry>
        </mxCell>
        <mxCell id="2EM5L-1oZQc2lYcwiExf-49" value="" style="endArrow=open;endFill=1;endSize=12;html=1;rounded=0;exitX=0.75;exitY=0;exitDx=0;exitDy=0;entryX=0.5;entryY=1;entryDx=0;entryDy=0;" edge="1" parent="1" source="2EM5L-1oZQc2lYcwiExf-41" target="2EM5L-1oZQc2lYcwiExf-40">
          <mxGeometry width="160" relative="1" as="geometry">
            <mxPoint x="115" y="570" as="sourcePoint" />
            <mxPoint x="-40" y="690" as="targetPoint" />
            <Array as="points">
              <mxPoint x="120" y="620" />
            </Array>
          </mxGeometry>
        </mxCell>
        <mxCell id="2EM5L-1oZQc2lYcwiExf-50" value="Resume&lt;div&gt;Processing&lt;/div&gt;" style="edgeLabel;html=1;align=center;verticalAlign=middle;resizable=0;points=[];" vertex="1" connectable="0" parent="2EM5L-1oZQc2lYcwiExf-49">
          <mxGeometry x="-0.135" y="-1" relative="1" as="geometry">
            <mxPoint x="-14" y="4" as="offset" />
          </mxGeometry>
        </mxCell>
        <mxCell id="2EM5L-1oZQc2lYcwiExf-51" value="" style="endArrow=open;endFill=1;endSize=12;html=1;rounded=0;exitX=0.75;exitY=1;exitDx=0;exitDy=0;entryX=0.5;entryY=0;entryDx=0;entryDy=0;" edge="1" parent="1" source="2EM5L-1oZQc2lYcwiExf-40" target="2EM5L-1oZQc2lYcwiExf-42">
          <mxGeometry width="160" relative="1" as="geometry">
            <mxPoint x="385" y="550" as="sourcePoint" />
            <mxPoint x="230" y="670" as="targetPoint" />
            <Array as="points">
              <mxPoint x="230" y="600" />
            </Array>
          </mxGeometry>
        </mxCell>
        <mxCell id="2EM5L-1oZQc2lYcwiExf-52" value="Work finished" style="edgeLabel;html=1;align=center;verticalAlign=middle;resizable=0;points=[];" vertex="1" connectable="0" parent="2EM5L-1oZQc2lYcwiExf-51">
          <mxGeometry x="-0.135" y="-1" relative="1" as="geometry">
            <mxPoint x="13" y="31" as="offset" />
          </mxGeometry>
        </mxCell>
        <mxCell id="2EM5L-1oZQc2lYcwiExf-54" value="&lt;p style=&quot;margin:0px;margin-top:4px;text-align:center;&quot;&gt;&lt;b&gt;Service Provider Processing&lt;/b&gt;&lt;/p&gt;&lt;hr size=&quot;1&quot; style=&quot;border-style:solid;&quot;&gt;&lt;div style=&quot;height:2px;&quot;&gt;&lt;/div&gt;" style="verticalAlign=top;align=left;overflow=fill;html=1;whiteSpace=wrap;rounded=1;fillColor=#fff2cc;strokeColor=light-dark(#000000, #6d5100);arcSize=7;" vertex="1" parent="1">
          <mxGeometry x="490" y="470" width="560" height="500" as="geometry" />
        </mxCell>
        <mxCell id="2EM5L-1oZQc2lYcwiExf-55" value="&lt;p style=&quot;margin:0px;margin-top:4px;text-align:center;&quot;&gt;&lt;b&gt;Forwarded To SP&lt;/b&gt;&lt;/p&gt;&lt;hr size=&quot;1&quot; style=&quot;border-style:solid;&quot;&gt;&lt;div style=&quot;height:2px;&quot;&gt;&lt;/div&gt;" style="verticalAlign=top;align=left;overflow=fill;html=1;whiteSpace=wrap;rounded=1;fillColor=#fff2cc;strokeColor=light-dark(#000000, #6d5100);" vertex="1" parent="1">
          <mxGeometry x="745" y="520" width="140" height="40" as="geometry" />
        </mxCell>
        <mxCell id="2EM5L-1oZQc2lYcwiExf-56" value="&lt;p style=&quot;margin:0px;margin-top:4px;text-align:center;&quot;&gt;&lt;b&gt;Processing by SP&lt;/b&gt;&lt;/p&gt;&lt;hr size=&quot;1&quot; style=&quot;border-style:solid;&quot;&gt;&lt;div style=&quot;height:2px;&quot;&gt;&lt;/div&gt;" style="verticalAlign=top;align=left;overflow=fill;html=1;whiteSpace=wrap;rounded=1;fillColor=#fff2cc;strokeColor=light-dark(#000000, #6d5100);" vertex="1" parent="1">
          <mxGeometry x="625" y="680" width="140" height="40" as="geometry" />
        </mxCell>
        <mxCell id="2EM5L-1oZQc2lYcwiExf-57" value="&lt;p style=&quot;margin:0px;margin-top:4px;text-align:center;&quot;&gt;&lt;b&gt;Processing Comleted&lt;/b&gt;&lt;/p&gt;&lt;hr size=&quot;1&quot; style=&quot;border-style:solid;&quot;&gt;&lt;div style=&quot;height:2px;&quot;&gt;&lt;/div&gt;" style="verticalAlign=top;align=left;overflow=fill;html=1;whiteSpace=wrap;rounded=1;fillColor=#fff2cc;strokeColor=light-dark(#000000, #6d5100);" vertex="1" parent="1">
          <mxGeometry x="890" y="820" width="140" height="40" as="geometry" />
        </mxCell>
        <mxCell id="2EM5L-1oZQc2lYcwiExf-58" value="" style="ellipse;html=1;shape=startState;fillColor=#000000;strokeColor=#ff0000;" vertex="1" parent="1">
          <mxGeometry x="635" y="525" width="30" height="30" as="geometry" />
        </mxCell>
        <mxCell id="2EM5L-1oZQc2lYcwiExf-59" value="" style="edgeStyle=orthogonalEdgeStyle;html=1;verticalAlign=bottom;endArrow=open;endSize=8;strokeColor=#ff0000;rounded=0;entryX=0;entryY=0.5;entryDx=0;entryDy=0;exitX=1;exitY=0.5;exitDx=0;exitDy=0;" edge="1" source="2EM5L-1oZQc2lYcwiExf-58" target="2EM5L-1oZQc2lYcwiExf-55" parent="1">
          <mxGeometry relative="1" as="geometry">
            <mxPoint x="670" y="190" as="targetPoint" />
            <mxPoint x="670" y="110" as="sourcePoint" />
          </mxGeometry>
        </mxCell>
        <mxCell id="2EM5L-1oZQc2lYcwiExf-60" value="" style="endArrow=open;endFill=1;endSize=12;html=1;rounded=0;exitX=0.25;exitY=1;exitDx=0;exitDy=0;entryX=0.5;entryY=0;entryDx=0;entryDy=0;" edge="1" source="2EM5L-1oZQc2lYcwiExf-55" target="2EM5L-1oZQc2lYcwiExf-56" parent="1">
          <mxGeometry width="160" relative="1" as="geometry">
            <mxPoint x="855" y="555" as="sourcePoint" />
            <mxPoint x="640" y="645" as="targetPoint" />
            <Array as="points">
              <mxPoint x="720" y="600" />
            </Array>
          </mxGeometry>
        </mxCell>
        <mxCell id="2EM5L-1oZQc2lYcwiExf-61" value="SP accetps" style="edgeLabel;html=1;align=center;verticalAlign=middle;resizable=0;points=[];" vertex="1" connectable="0" parent="2EM5L-1oZQc2lYcwiExf-60">
          <mxGeometry x="-0.135" y="-1" relative="1" as="geometry">
            <mxPoint x="-14" y="24" as="offset" />
          </mxGeometry>
        </mxCell>
        <mxCell id="2EM5L-1oZQc2lYcwiExf-64" value="" style="endArrow=open;endFill=1;endSize=12;html=1;rounded=0;exitX=1;exitY=0.5;exitDx=0;exitDy=0;entryX=0.5;entryY=0;entryDx=0;entryDy=0;" edge="1" source="2EM5L-1oZQc2lYcwiExf-56" target="2EM5L-1oZQc2lYcwiExf-57" parent="1">
          <mxGeometry width="160" relative="1" as="geometry">
            <mxPoint x="1060" y="550" as="sourcePoint" />
            <mxPoint x="905" y="670" as="targetPoint" />
            <Array as="points">
              <mxPoint x="870" y="700" />
            </Array>
          </mxGeometry>
        </mxCell>
        <mxCell id="2EM5L-1oZQc2lYcwiExf-65" value="Work finished" style="edgeLabel;html=1;align=center;verticalAlign=middle;resizable=0;points=[];" vertex="1" connectable="0" parent="2EM5L-1oZQc2lYcwiExf-64">
          <mxGeometry x="-0.135" y="-1" relative="1" as="geometry">
            <mxPoint x="51" y="49" as="offset" />
          </mxGeometry>
        </mxCell>
        <mxCell id="2EM5L-1oZQc2lYcwiExf-66" value="&lt;p style=&quot;margin:0px;margin-top:4px;text-align:center;&quot;&gt;&lt;b&gt;Processing on Hold&lt;/b&gt;&lt;/p&gt;&lt;hr size=&quot;1&quot; style=&quot;border-style:solid;&quot;&gt;&lt;div style=&quot;height:2px;&quot;&gt;&lt;/div&gt;" style="verticalAlign=top;align=left;overflow=fill;html=1;whiteSpace=wrap;rounded=1;fillColor=#fff2cc;strokeColor=light-dark(#000000, #6d5100);" vertex="1" parent="1">
          <mxGeometry x="525" y="820" width="140" height="40" as="geometry" />
        </mxCell>
        <mxCell id="2EM5L-1oZQc2lYcwiExf-67" value="" style="endArrow=open;endFill=1;endSize=12;html=1;rounded=0;exitX=0.25;exitY=1;exitDx=0;exitDy=0;entryX=0.25;entryY=0;entryDx=0;entryDy=0;" edge="1" parent="1" source="2EM5L-1oZQc2lYcwiExf-56" target="2EM5L-1oZQc2lYcwiExf-66">
          <mxGeometry width="160" relative="1" as="geometry">
            <mxPoint x="715" y="700" as="sourcePoint" />
            <mxPoint x="560" y="820" as="targetPoint" />
            <Array as="points">
              <mxPoint x="590" y="750" />
            </Array>
          </mxGeometry>
        </mxCell>
        <mxCell id="2EM5L-1oZQc2lYcwiExf-68" value="Needs more&lt;div&gt;information&lt;/div&gt;" style="edgeLabel;html=1;align=center;verticalAlign=middle;resizable=0;points=[];" vertex="1" connectable="0" parent="2EM5L-1oZQc2lYcwiExf-67">
          <mxGeometry x="-0.135" y="-1" relative="1" as="geometry">
            <mxPoint x="-19" y="35" as="offset" />
          </mxGeometry>
        </mxCell>
        <mxCell id="2EM5L-1oZQc2lYcwiExf-69" value="" style="endArrow=open;endFill=1;endSize=12;html=1;rounded=0;exitX=0.75;exitY=0;exitDx=0;exitDy=0;entryX=0.75;entryY=1;entryDx=0;entryDy=0;" edge="1" parent="1" source="2EM5L-1oZQc2lYcwiExf-66" target="2EM5L-1oZQc2lYcwiExf-56">
          <mxGeometry width="160" relative="1" as="geometry">
            <mxPoint x="650" y="830" as="sourcePoint" />
            <mxPoint x="735" y="710" as="targetPoint" />
            <Array as="points">
              <mxPoint x="700" y="780" />
            </Array>
          </mxGeometry>
        </mxCell>
        <mxCell id="2EM5L-1oZQc2lYcwiExf-70" value="Resume&lt;div&gt;Processing&lt;/div&gt;" style="edgeLabel;html=1;align=center;verticalAlign=middle;resizable=0;points=[];" vertex="1" connectable="0" parent="2EM5L-1oZQc2lYcwiExf-69">
          <mxGeometry x="-0.135" y="-1" relative="1" as="geometry">
            <mxPoint x="9" y="-9" as="offset" />
          </mxGeometry>
        </mxCell>
        <mxCell id="2EM5L-1oZQc2lYcwiExf-71" value="" style="endArrow=open;endFill=1;endSize=12;html=1;rounded=0;exitX=0;exitY=0.75;exitDx=0;exitDy=0;entryX=0.5;entryY=0;entryDx=0;entryDy=0;" edge="1" parent="1" source="2EM5L-1oZQc2lYcwiExf-38" target="2EM5L-1oZQc2lYcwiExf-39">
          <mxGeometry width="160" relative="1" as="geometry">
            <mxPoint x="275" y="330" as="sourcePoint" />
            <mxPoint x="120" y="450" as="targetPoint" />
            <Array as="points">
              <mxPoint x="280" y="340" />
            </Array>
          </mxGeometry>
        </mxCell>
        <mxCell id="2EM5L-1oZQc2lYcwiExf-72" value="Manager self-handles" style="edgeLabel;html=1;align=center;verticalAlign=middle;resizable=0;points=[];" vertex="1" connectable="0" parent="2EM5L-1oZQc2lYcwiExf-71">
          <mxGeometry x="-0.135" y="-1" relative="1" as="geometry">
            <mxPoint x="-41" y="47" as="offset" />
          </mxGeometry>
        </mxCell>
        <mxCell id="2EM5L-1oZQc2lYcwiExf-73" value="" style="endArrow=open;endFill=1;endSize=12;html=1;rounded=0;exitX=0.75;exitY=1;exitDx=0;exitDy=0;entryX=0.25;entryY=0;entryDx=0;entryDy=0;" edge="1" parent="1" source="2EM5L-1oZQc2lYcwiExf-38" target="2EM5L-1oZQc2lYcwiExf-54">
          <mxGeometry width="160" relative="1" as="geometry">
            <mxPoint x="755" y="310" as="sourcePoint" />
            <mxPoint x="565" y="440" as="targetPoint" />
            <Array as="points">
              <mxPoint x="490" y="410" />
            </Array>
          </mxGeometry>
        </mxCell>
        <mxCell id="2EM5L-1oZQc2lYcwiExf-74" value="Forward to Service Provider" style="edgeLabel;html=1;align=center;verticalAlign=middle;resizable=0;points=[];" vertex="1" connectable="0" parent="2EM5L-1oZQc2lYcwiExf-73">
          <mxGeometry x="-0.135" y="-1" relative="1" as="geometry">
            <mxPoint x="40" y="8" as="offset" />
          </mxGeometry>
        </mxCell>
        <mxCell id="2EM5L-1oZQc2lYcwiExf-75" value="" style="ellipse;html=1;shape=endState;fillColor=#000000;strokeColor=#ff0000;" vertex="1" parent="1">
          <mxGeometry x="125" y="770" width="30" height="30" as="geometry" />
        </mxCell>
        <mxCell id="2EM5L-1oZQc2lYcwiExf-76" value="" style="endArrow=open;endFill=1;endSize=12;html=1;rounded=0;exitX=0.5;exitY=1;exitDx=0;exitDy=0;entryX=1;entryY=0.5;entryDx=0;entryDy=0;" edge="1" parent="1" source="2EM5L-1oZQc2lYcwiExf-42" target="2EM5L-1oZQc2lYcwiExf-75">
          <mxGeometry width="160" relative="1" as="geometry">
            <mxPoint x="230" y="770" as="sourcePoint" />
            <mxPoint x="305" y="890" as="targetPoint" />
            <Array as="points">
              <mxPoint x="220" y="760" />
            </Array>
          </mxGeometry>
        </mxCell>
        <mxCell id="2EM5L-1oZQc2lYcwiExf-78" value="" style="ellipse;html=1;shape=endState;fillColor=#000000;strokeColor=#ff0000;" vertex="1" parent="1">
          <mxGeometry x="790" y="920" width="30" height="30" as="geometry" />
        </mxCell>
        <mxCell id="2EM5L-1oZQc2lYcwiExf-79" value="" style="endArrow=open;endFill=1;endSize=12;html=1;rounded=0;exitX=0.5;exitY=1;exitDx=0;exitDy=0;entryX=1;entryY=0.5;entryDx=0;entryDy=0;" edge="1" target="2EM5L-1oZQc2lYcwiExf-78" parent="1" source="2EM5L-1oZQc2lYcwiExf-57">
          <mxGeometry width="160" relative="1" as="geometry">
            <mxPoint x="915" y="870" as="sourcePoint" />
            <mxPoint x="970" y="1040" as="targetPoint" />
            <Array as="points">
              <mxPoint x="920" y="910" />
            </Array>
          </mxGeometry>
        </mxCell>
        <mxCell id="2EM5L-1oZQc2lYcwiExf-80" value="" style="endArrow=open;endFill=1;endSize=12;html=1;rounded=0;exitX=0.5;exitY=1;exitDx=0;exitDy=0;entryX=0.5;entryY=0;entryDx=0;entryDy=0;" edge="1" parent="1" source="2EM5L-1oZQc2lYcwiExf-55" target="2EM5L-1oZQc2lYcwiExf-78">
          <mxGeometry width="160" relative="1" as="geometry">
            <mxPoint x="895" y="610" as="sourcePoint" />
            <mxPoint x="810" y="730" as="targetPoint" />
            <Array as="points" />
          </mxGeometry>
        </mxCell>
        <mxCell id="2EM5L-1oZQc2lYcwiExf-81" value="SP rejects" style="edgeLabel;html=1;align=center;verticalAlign=middle;resizable=0;points=[];" vertex="1" connectable="0" parent="2EM5L-1oZQc2lYcwiExf-80">
          <mxGeometry x="-0.135" y="-1" relative="1" as="geometry">
            <mxPoint x="-14" y="72" as="offset" />
          </mxGeometry>
        </mxCell>
        <mxCell id="2EM5L-1oZQc2lYcwiExf-82" value="" style="endArrow=open;endFill=1;endSize=12;html=1;rounded=0;exitX=0.5;exitY=0;exitDx=0;exitDy=0;entryX=1;entryY=0.5;entryDx=0;entryDy=0;" edge="1" parent="1" source="2EM5L-1oZQc2lYcwiExf-54" target="2EM5L-1oZQc2lYcwiExf-38">
          <mxGeometry width="160" relative="1" as="geometry">
            <mxPoint x="680" y="220" as="sourcePoint" />
            <mxPoint x="965" y="340" as="targetPoint" />
            <Array as="points">
              <mxPoint x="570" y="330" />
            </Array>
          </mxGeometry>
        </mxCell>
        <mxCell id="2EM5L-1oZQc2lYcwiExf-83" value="Service Provider rejects" style="edgeLabel;html=1;align=center;verticalAlign=middle;resizable=0;points=[];" vertex="1" connectable="0" parent="2EM5L-1oZQc2lYcwiExf-82">
          <mxGeometry x="-0.135" y="-1" relative="1" as="geometry">
            <mxPoint y="-7" as="offset" />
          </mxGeometry>
        </mxCell>
        <mxCell id="2EM5L-1oZQc2lYcwiExf-84" value="&lt;p style=&quot;margin:0px;margin-top:4px;text-align:center;&quot;&gt;&lt;b&gt;Pending Resolution Confirmed&lt;/b&gt;&lt;/p&gt;&lt;hr size=&quot;1&quot; style=&quot;border-style:solid;&quot;&gt;&lt;div style=&quot;height:2px;&quot;&gt;&lt;/div&gt;" style="verticalAlign=top;align=left;overflow=fill;html=1;whiteSpace=wrap;rounded=1;fillColor=#fff2cc;strokeColor=light-dark(#000000, #6d5100);" vertex="1" parent="1">
          <mxGeometry x="360" y="1080" width="140" height="60" as="geometry" />
        </mxCell>
        <mxCell id="2EM5L-1oZQc2lYcwiExf-85" value="" style="endArrow=open;endFill=1;endSize=12;html=1;rounded=0;exitX=0.5;exitY=1;exitDx=0;exitDy=0;entryX=1;entryY=0;entryDx=0;entryDy=0;" edge="1" parent="1" source="2EM5L-1oZQc2lYcwiExf-54" target="2EM5L-1oZQc2lYcwiExf-84">
          <mxGeometry width="160" relative="1" as="geometry">
            <mxPoint x="670" y="990" as="sourcePoint" />
            <mxPoint x="490" y="1065" as="targetPoint" />
            <Array as="points">
              <mxPoint x="660" y="1050" />
            </Array>
          </mxGeometry>
        </mxCell>
        <mxCell id="2EM5L-1oZQc2lYcwiExf-86" value="" style="endArrow=open;endFill=1;endSize=12;html=1;rounded=0;exitX=0.5;exitY=0;exitDx=0;exitDy=0;entryX=0.5;entryY=1;entryDx=0;entryDy=0;" edge="1" parent="1" source="2EM5L-1oZQc2lYcwiExf-84" target="2EM5L-1oZQc2lYcwiExf-38">
          <mxGeometry width="160" relative="1" as="geometry">
            <mxPoint x="505" y="870" as="sourcePoint" />
            <mxPoint x="205" y="980" as="targetPoint" />
            <Array as="points" />
          </mxGeometry>
        </mxCell>
        <mxCell id="2EM5L-1oZQc2lYcwiExf-87" value="Re-open&amp;nbsp;&lt;div&gt;requested&lt;/div&gt;" style="edgeLabel;html=1;align=center;verticalAlign=middle;resizable=0;points=[];" vertex="1" connectable="0" parent="2EM5L-1oZQc2lYcwiExf-86">
          <mxGeometry x="-0.0565" y="2" relative="1" as="geometry">
            <mxPoint as="offset" />
          </mxGeometry>
        </mxCell>
        <mxCell id="2EM5L-1oZQc2lYcwiExf-88" value="" style="endArrow=open;endFill=1;endSize=12;html=1;rounded=0;exitX=0.5;exitY=1;exitDx=0;exitDy=0;entryX=0;entryY=0;entryDx=0;entryDy=0;" edge="1" parent="1" source="2EM5L-1oZQc2lYcwiExf-39" target="2EM5L-1oZQc2lYcwiExf-84">
          <mxGeometry width="160" relative="1" as="geometry">
            <mxPoint x="310" y="890" as="sourcePoint" />
            <mxPoint x="20" y="1000" as="targetPoint" />
            <Array as="points">
              <mxPoint x="180" y="970" />
            </Array>
          </mxGeometry>
        </mxCell>
        <mxCell id="2EM5L-1oZQc2lYcwiExf-89" value="" style="endArrow=open;endFill=1;endSize=12;html=1;rounded=0;exitX=0.5;exitY=1;exitDx=0;exitDy=0;entryX=0.5;entryY=0;entryDx=0;entryDy=0;" edge="1" parent="1" source="2EM5L-1oZQc2lYcwiExf-36" target="2EM5L-1oZQc2lYcwiExf-37">
          <mxGeometry width="160" relative="1" as="geometry">
            <mxPoint x="-115" y="530" as="sourcePoint" />
            <mxPoint x="-330" y="620" as="targetPoint" />
            <Array as="points" />
          </mxGeometry>
        </mxCell>
        <mxCell id="2EM5L-1oZQc2lYcwiExf-90" value="Manager Rejects&lt;div&gt;(early)&lt;/div&gt;" style="edgeLabel;html=1;align=center;verticalAlign=middle;resizable=0;points=[];" vertex="1" connectable="0" parent="2EM5L-1oZQc2lYcwiExf-89">
          <mxGeometry x="-0.135" y="-1" relative="1" as="geometry">
            <mxPoint as="offset" />
          </mxGeometry>
        </mxCell>
        <mxCell id="2EM5L-1oZQc2lYcwiExf-91" value="" style="endArrow=open;endFill=1;endSize=12;html=1;rounded=0;exitX=0.5;exitY=1;exitDx=0;exitDy=0;entryX=0;entryY=0.5;entryDx=0;entryDy=0;" edge="1" parent="1" source="2EM5L-1oZQc2lYcwiExf-37" target="2EM5L-1oZQc2lYcwiExf-93">
          <mxGeometry width="160" relative="1" as="geometry">
            <mxPoint x="-160" y="1290" as="sourcePoint" />
            <mxPoint y="1390" as="targetPoint" />
            <Array as="points">
              <mxPoint x="-230" y="1370" />
            </Array>
          </mxGeometry>
        </mxCell>
        <mxCell id="2EM5L-1oZQc2lYcwiExf-92" value="&lt;p style=&quot;margin:0px;margin-top:4px;text-align:center;&quot;&gt;&lt;b&gt;Closed&lt;/b&gt;&lt;/p&gt;&lt;hr size=&quot;1&quot; style=&quot;border-style:solid;&quot;&gt;&lt;div style=&quot;height:2px;&quot;&gt;&lt;/div&gt;" style="verticalAlign=top;align=left;overflow=fill;html=1;whiteSpace=wrap;rounded=1;fillColor=#fff2cc;strokeColor=light-dark(#000000, #6d5100);" vertex="1" parent="1">
          <mxGeometry x="360" y="1240" width="140" height="40" as="geometry" />
        </mxCell>
        <mxCell id="2EM5L-1oZQc2lYcwiExf-93" value="" style="ellipse;html=1;shape=endState;fillColor=#000000;strokeColor=#ff0000;" vertex="1" parent="1">
          <mxGeometry x="55" y="1400" width="30" height="30" as="geometry" />
        </mxCell>
        <mxCell id="2EM5L-1oZQc2lYcwiExf-94" value="" style="endArrow=open;endFill=1;endSize=12;html=1;rounded=0;exitX=0.5;exitY=1;exitDx=0;exitDy=0;entryX=0.5;entryY=0;entryDx=0;entryDy=0;" edge="1" parent="1" source="2EM5L-1oZQc2lYcwiExf-84" target="2EM5L-1oZQc2lYcwiExf-92">
          <mxGeometry width="160" relative="1" as="geometry">
            <mxPoint x="310" y="1192.5" as="sourcePoint" />
            <mxPoint x="650" y="1327.5" as="targetPoint" />
            <Array as="points" />
          </mxGeometry>
        </mxCell>
        <mxCell id="2EM5L-1oZQc2lYcwiExf-95" value="Confirmed OK" style="edgeLabel;html=1;align=center;verticalAlign=middle;resizable=0;points=[];" vertex="1" connectable="0" parent="2EM5L-1oZQc2lYcwiExf-94">
          <mxGeometry x="-0.148" y="-4" relative="1" as="geometry">
            <mxPoint as="offset" />
          </mxGeometry>
        </mxCell>
        <mxCell id="2EM5L-1oZQc2lYcwiExf-96" value="" style="endArrow=open;endFill=1;endSize=12;html=1;rounded=0;exitX=0.5;exitY=1;exitDx=0;exitDy=0;entryX=1;entryY=0.5;entryDx=0;entryDy=0;" edge="1" parent="1" source="2EM5L-1oZQc2lYcwiExf-92" target="2EM5L-1oZQc2lYcwiExf-93">
          <mxGeometry width="160" relative="1" as="geometry">
            <mxPoint x="265" y="1310" as="sourcePoint" />
            <mxPoint x="605" y="1445" as="targetPoint" />
            <Array as="points">
              <mxPoint x="370" y="1370" />
            </Array>
          </mxGeometry>
        </mxCell>
        <mxCell id="2EM5L-1oZQc2lYcwiExf-97" value="" style="endArrow=open;endFill=1;endSize=12;html=1;rounded=0;exitX=1;exitY=0.5;exitDx=0;exitDy=0;entryX=0;entryY=0.5;entryDx=0;entryDy=0;" edge="1" parent="1" source="2EM5L-1oZQc2lYcwiExf-36" target="2EM5L-1oZQc2lYcwiExf-38">
          <mxGeometry width="160" relative="1" as="geometry">
            <mxPoint x="90" y="285" as="sourcePoint" />
            <mxPoint x="-125" y="375" as="targetPoint" />
            <Array as="points" />
          </mxGeometry>
        </mxCell>
        <mxCell id="2EM5L-1oZQc2lYcwiExf-98" value="Manager Accepts" style="edgeLabel;html=1;align=center;verticalAlign=middle;resizable=0;points=[];" vertex="1" connectable="0" parent="2EM5L-1oZQc2lYcwiExf-97">
          <mxGeometry x="-0.135" y="-1" relative="1" as="geometry">
            <mxPoint x="13" y="-1" as="offset" />
          </mxGeometry>
        </mxCell>
      </root>
    </mxGraphModel>
  </diagram>
</mxfile>
